<svg width="24" height="24" viewBox="0 0 24 24" fill="none" xmlns="http://www.w3.org/2000/svg">
<path fill-rule="evenodd" clip-rule="evenodd" d="M4.36364 1.09091C4.36364 0.488417 4.85205 0 5.45455 0H18.5455C19.1479 0 19.6364 0.488417 19.6364 1.09091V2.18182H20.1818C21.1945 2.18182 22.1656 2.58409 22.8817 3.30014C23.5977 4.01619 24 4.98736 24 6C24 7.01265 23.5977 7.98381 22.8817 8.69986C22.1656 9.41591 21.1945 9.81818 20.1818 9.81818H19.5581C19.324 11.4401 18.5722 12.9546 17.3997 14.127C16.7758 14.7509 16.055 15.2557 15.2727 15.6268V17.4477C15.2767 17.4584 15.2895 17.484 15.3261 17.5257C15.4002 17.61 15.5293 17.7068 15.6959 17.7835L15.24 18.7745L15.694 17.7826C17.1789 18.4621 18.1697 20.0309 18.4582 21.8182H20.7273C21.3298 21.8182 21.8182 22.3066 21.8182 22.9091C21.8182 23.5116 21.3298 24 20.7273 24H3.27273C2.67024 24 2.18182 23.5116 2.18182 22.9091C2.18182 22.3066 2.67024 21.8182 3.27273 21.8182H5.54177C5.83026 20.0315 6.82051 18.463 8.30475 17.7832C8.471 17.7066 8.59991 17.6099 8.67388 17.5257C8.71046 17.484 8.7233 17.4584 8.72727 17.4477V15.6268C7.94498 15.2557 7.2242 14.7509 6.60028 14.127C5.42784 12.9546 4.67602 11.4401 4.44193 9.81818H3.81818C2.80554 9.81818 1.83437 9.41591 1.11832 8.69986C0.402271 7.98381 0 7.01265 0 6C0 4.98736 0.402271 4.01619 1.11832 3.30014C1.83437 2.58409 2.80554 2.18182 3.81818 2.18182H4.36364V1.09091ZM4.36364 4.36364H3.81818C3.38419 4.36364 2.96798 4.53604 2.6611 4.84292C2.35422 5.14979 2.18182 5.56601 2.18182 6C2.18182 6.43399 2.35422 6.85021 2.6611 7.15708C2.96798 7.46396 3.38419 7.63636 3.81818 7.63636H4.36364V4.36364ZM6.54545 2.18182H17.4545V8.72727C17.4545 10.1739 16.8799 11.5613 15.8569 12.5842C14.834 13.6071 13.4466 14.1818 12 14.1818C10.5534 14.1818 9.16598 13.6071 8.14305 12.5842C7.12013 11.5613 6.54545 10.1739 6.54545 8.72727V2.18182ZM19.6364 4.36364V7.63636H20.1818C20.6158 7.63636 21.032 7.46396 21.3389 7.15708C21.6458 6.85021 21.8182 6.43399 21.8182 6C21.8182 5.56601 21.6458 5.14979 21.3389 4.84292C21.032 4.53604 20.6158 4.36364 20.1818 4.36364H19.6364ZM10.9091 16.2853V17.4545C10.9091 18.7094 9.88495 19.4579 9.2159 19.7656L9.21395 19.7665C8.6125 20.0418 8.01613 20.773 7.76294 21.8182H16.2371C15.9839 20.773 15.3875 20.0418 14.786 19.7665L14.7841 19.7656C14.1151 19.4579 13.0909 18.7094 13.0909 17.4545V16.2853C12.7317 16.3372 12.3672 16.3636 12 16.3636C11.6328 16.3636 11.2683 16.3372 10.9091 16.2853Z" fill="#B2493A"/>
</svg>
