<svg width="24" height="26" viewBox="0 0 24 26" fill="none" xmlns="http://www.w3.org/2000/svg">
<g clip-path="url(#clip0_5036_5073)">
<path d="M12.0376 25.2384C7.2774 25.2523 3.40122 20.8871 3.38541 15.4974C3.37341 11.4045 7.97659 4.90715 10.6914 1.41411C11.035 0.967331 11.4829 0.763396 11.9658 0.761979C12.4487 0.760562 12.8978 1.00239 13.244 1.40662C15.9792 4.88367 20.6204 11.3539 20.6324 15.4468C20.6483 20.8365 16.7978 25.2244 12.0376 25.2384ZM12.1092 2.62567C12.04 2.54483 11.9365 2.54513 11.8333 2.62648C8.49995 6.93182 4.92897 12.5346 4.93765 15.4929C4.95049 19.8694 8.1344 23.4262 12.0322 23.4148C15.9301 23.4034 19.0931 19.828 19.0802 15.4514C19.0715 12.4931 15.4678 6.91138 12.1092 2.62567Z" fill="#BB0A08"/>
</g>
<defs>
<clipPath id="clip0_5036_5073">
<rect width="22.0763" height="25.9354" fill="white" transform="matrix(0.999996 -0.00293335 -0.00293335 -0.999996 1 26)"/>
</clipPath>
</defs>
</svg>
